# xmcd
#
# Track frame offsets:
# 150
# 12440
# 31468
# 44783
# 61290
# 79528
# 93223
# 112183
# 127598
# 146690
# 163158
# 177840
# 194873
# 211395
# 227193
# 240505
#
# Disc length: 3419 seconds
#
#
# Revision: 1
# Processed by: cddbd v1.4PL0 Copyright (c) Steve Scherf et al.
# Submitted via: FreeRIP 2.40 
#
DISCID=e10d5910
DTITLE=Rolando Boldrim - Terno de Missa
DYEAR=1900
DGENRE=
TTITLE0=Terno de missa
TTITLE1=Ventania
TTITLE2=Adeus meu pai
TTITLE3=Quadrilha
TTITLE4=Vide-vida marvada
TTITLE5=Alpendre da saudade
TTITLE6=Toada da revolução
TTITLE7=Coração de violeiro
TTITLE8=Provérbios
TTITLE9=Moda ecológica
TTITLE10=Cabocla Tereza
TTITLE11=Casinha de páia
TTITLE12=Lá vai minha garça branca
TTITLE13=Folha seca
TTITLE14=Violeiro triste
TTITLE15=Rancho da serra
EXTD=
EXTT0=
EXTT1=
EXTT2=
EXTT3=
EXTT4=
EXTT5=
EXTT6=
EXTT7=
EXTT8=
EXTT9=
EXTT10=
EXTT11=
EXTT12=
EXTT13=
EXTT14=
EXTT15=
PLAYORDER=
